<?xml version="1.0" encoding="utf-8"?>
<!-- Generator: Adobe Illustrator 27.5.0, SVG Export Plug-In . SVG Version: 6.00 Build 0)  -->
<svg version="1.1" id="Layer_1" xmlns="http://www.w3.org/2000/svg" xmlns:xlink="http://www.w3.org/1999/xlink" x="0px" y="0px"
	 viewBox="0 0 566.93 566.93" style="enable-background:new 0 0 566.93 566.93;" xml:space="preserve">
<style type="text/css">
	.st0{fill-rule:evenodd;clip-rule:evenodd;fill:#871619;}
	.st1{fill-rule:evenodd;clip-rule:evenodd;fill:#ED1651;}
	.st2{fill-rule:evenodd;clip-rule:evenodd;fill:#FEEF2B;}
	.st3{fill-rule:evenodd;clip-rule:evenodd;fill:#FBCD1E;}
	.st4{fill-rule:evenodd;clip-rule:evenodd;fill:#130D1D;}
	.st5{fill-rule:evenodd;clip-rule:evenodd;fill:#233E81;}
</style>
<g>
	<polygon class="st0" points="72.03,396.13 69.13,393.23 72.67,391.79 78.31,353.85 96.82,352.02 104.12,351.3 104.06,343.96 
		103.46,276.42 107.48,291.33 109.18,297.64 115.69,297.28 152.98,295.23 158.62,294.92 160.25,289.5 165.23,272.89 169.04,336.49 
		169.54,344.84 177.85,344.02 222.32,339.62 230.61,338.8 229.44,330.13 300.5,323.11 307.11,322.46 307.71,315.84 308.31,309.18 
		340.85,312.8 348.48,313.65 349.66,306.03 355.13,270.76 360.23,309.84 361.16,316.97 368.35,316.82 393.65,316.32 394.39,325.41 
		395.1,334.24 403.8,332.72 499.85,315.92 511.95,367.12 	"/>
	<polygon class="st1" points="69.13,393.23 74.93,354.18 96.82,352.02 104.12,351.3 104.06,343.96 103.46,276.42 107.48,291.33 
		109.18,297.64 115.69,297.28 152.98,295.23 158.62,294.92 160.25,289.5 165.23,272.89 169.04,336.49 169.54,344.84 177.85,344.02 
		222.32,339.62 230.61,338.8 229.5,330.56 229.44,330.13 216.27,331.44 300.5,323.11 307.11,322.46 307.71,315.84 308.31,309.18 
		340.85,312.8 348.48,313.65 349.66,306.03 355.13,270.76 360.23,309.84 361.16,316.97 368.35,316.82 393.65,316.32 394.39,325.41 
		395.1,334.24 403.8,332.72 497.73,316.29 509.05,364.22 	"/>
	<path class="st0" d="M499.24,322.69l-89.76,15.7l-8.7,1.52l-0.53-6.57l3.56-0.62l93.92-16.43L499.24,322.69L499.24,322.69z
		 M229.44,330.13l1.17,8.67l-8.29,0.82l-44.47,4.39l-3.01,0.3l0.37,6.2l8.31-0.82l44.47-4.39l8.29-0.82l-0.92-6.82l-0.25-1.85
		l71.06-7.02l6.61-0.65l0.6-6.62l0.61-6.66l32.53,3.62l7.63,0.85l1.18-7.62l2.79-18l-3-22.94l-5.47,35.27l-1.18,7.62l-7.63-0.85
		l-32.53-3.62l-0.61,6.66l-0.6,6.62l-6.61,0.65C276.81,325.45,253.13,327.79,229.44,330.13L229.44,330.13z M394.12,322.09l-20.1,0.4
		l-7.19,0.14l-0.75-5.77l2.27-0.05l25.3-0.51L394.12,322.09L394.12,322.09z M166.46,293.38l-0.54,1.79l-1.62,5.42l-5.65,0.31
		l-37.28,2.05l-6.52,0.36l-1.59-5.9l2.43-0.13l37.28-2.05l5.65-0.31l1.63-5.42l4.98-16.62L166.46,293.38L166.46,293.38z
		 M109.27,297.63l0.46,52l0.06,7.34l-7.3,0.72l-28.5,2.82l0.94-6.33l21.89-2.16l7.3-0.72l-0.07-7.34l-0.6-67.54l4.02,14.91l1.7,6.31
		L109.27,297.63z"/>
	<polygon class="st2" points="502.92,315.38 403.8,332.72 395.1,334.24 394.39,325.41 393.65,316.32 368.35,316.82 361.16,316.97 
		360.23,309.84 355.13,270.76 349.66,306.03 348.43,313.96 340.53,312.77 308.43,307.92 307.71,315.84 307.11,322.46 300.5,323.11 
		229.44,330.13 229.5,330.56 230.61,338.8 222.32,339.62 177.85,344.02 169.54,344.84 169.04,336.49 165.23,272.89 160.25,289.5 
		158.62,294.92 152.98,295.23 115.69,297.28 109.18,297.64 107.48,291.33 103.46,276.42 104.06,343.96 104.12,351.3 96.82,352.02 
		57.17,355.94 47.86,356.86 48.36,347.54 55.74,207.95 56.18,199.53 64.55,200.36 120.89,205.93 125.2,206.35 127.22,210.18 
		135.34,225.57 145.74,212.17 148.47,208.65 152.88,209.09 207.61,214.49 213.94,215.12 214.79,221.42 219.63,257.34 230.17,257.34 
		230.17,253.58 230.17,230.02 230.17,221.96 238.22,221.96 250.62,221.96 248.22,205.63 246.72,195.46 256.97,196.47 293.36,200.06 
		295.54,185.66 301.41,184.77 386.18,171.98 394.01,170.8 395.31,178.65 398.61,198.64 500.12,216.39 516.17,219.2 482.82,247.04 
		437.62,247.04 437.45,255.64 441.71,255.64 478.33,255.64 500.06,271.08 509.31,305.37 511.6,313.86 	"/>
	<path class="st3" d="M380.25,300.53l-10.68-81.78l-5.05-0.06l10.7,81.94L380.25,300.53L380.25,300.53z M381.82,195.6l-66.34,10.01
		l-2.99,19.76l-4.94-11.48l-0.86,5.68l-6.31-14.65l11.95,27.77l2.03,4.72l-3.45,3.84l-5.4,6.01l4.8,4.32l1.29,1.16l5.11-5.68
		l3.45-3.84l-2.03-4.72l-10.59-24.6l2.13-14.08l71.06-10.72L381.82,195.6L381.82,195.6z M313.26,254.8l2.87,2.58l2.98,2.68
		l-0.37,4.03l-2.71,29.77l-6.26-0.7l3.17-34.87L313.26,254.8L313.26,254.8z M289.82,221.09l-18.38-1.82l2.26,15.38l1.36,9.22h-9.32
		h-13.66v1.64h-5.8v-7.45h13.66h9.32l-1.36-9.22l-2.26-15.38l21.83,2.16L289.82,221.09L289.82,221.09z M268,251.32h5.8v8.06v38.74
		v8.06h-8.06h-12.11h-8.06v-5.8h2.26h12.11H268v-8.06v-38.74V251.32L268,251.32z M239.78,279.26h-23.16l9.1,35.1l-4.19,0.41
		l-10.71-41.32h28.96V279.26L239.78,279.26z M200.42,235.16l-38.9-3.84l-15.32,19.74l-7.65,9.86l-4.17-7.9l6.02-7.76l15.32-19.74
		l43.99,4.35L200.42,235.16L200.42,235.16z M117.92,227.01l-40.78-4.03l-6.1,115.45l-6.14,0.61l6.44-121.86l43.66,4.31
		L117.92,227.01L117.92,227.01z M115.67,259.89l0.05,0.18l5.6,20.8l4.18-0.23l-3.98-14.77l-1.61-5.98H115.67L115.67,259.89z
		 M180.56,259.89l0.11,1.78l3.93,65.53l5.42-0.54l-3.55-59.2l-0.45-7.59H180.56L180.56,259.89z M485.91,280.39l-4.18-2.84h-20.43
		h-5.48h-26.4l-0.19-5.8h46.7l9.37,6.35L485.91,280.39L485.91,280.39z M466.81,286.99l4.93-0.47l2.2,15.89l-38.08,7.02l-9.67,1.78
		l0.14-6.9l3.73-0.69l38.08-7.02L466.81,286.99L466.81,286.99z M462.4,230.93h17.3l1.61-1.48l-79.65-13.93l8.07,99.82l5.26-0.92
		l-7.53-93.1L462.4,230.93z"/>
	<path class="st4" d="M394.01,170.8l2.9,2.9l1.3,7.85l3.3,19.98l-4.44-0.78l-10.25-1.79l0.84,10.35l1.11,13.67l-4.44-26.85
		l9.84,1.72l4.44,0.78l-3.3-19.98L394.01,170.8L394.01,170.8z M381.28,192.34l-68.7,10.37l-2.99,19.76l-2.47-5.74l2.56-16.92
		l71.06-10.72L381.28,192.34L381.28,192.34z M396.56,319.22l-25.3,0.51l-7.19,0.14l-2.9-2.9l7.19-0.14l25.3-0.51l-1.06-13.08
		l2.66-0.05L396.56,319.22L396.56,319.22z M356.66,282.49l-4.1,26.44l-1.18,7.62l-7.63-0.85l-32.53-3.62l0.23-2.55l29.4,3.27
		l7.63,0.85l1.18-7.62l5.47-35.27L356.66,282.49L356.66,282.49z M363.77,212.95l11.45,87.68l2.51-0.05l-11.07-84.73L363.77,212.95z"
		/>
	<path class="st4" d="M106.43,287.45l0.53,59.41l0.06,7.34l-7.3,0.72l-39.65,3.92l-9.31,0.92l-2.9-2.9l9.31-0.92l39.65-3.92
		l7.3-0.72l-0.07-7.34l-0.6-67.54L106.43,287.45L106.43,287.45z M125.2,206.35l2.9,2.9l2.02,3.82l6.04,11.44l-0.82,1.05l-8.13-15.39
		L125.2,206.35L125.2,206.35z M213.94,215.12l2.9,2.9l0.85,6.3l4.84,35.92h-16.21l-0.39-2.9h13.7l-4.84-35.92L213.94,215.12
		L213.94,215.12z M200.07,232.51l-0.36-2.65l-43.99-4.34l-15.32,19.74l-7.65,9.86l2.9,2.9l7.65-9.86l15.32-19.74L200.07,232.51
		L200.07,232.51z M116.46,224.25l-1.46-2.76l-43.66-4.31L64.9,339.03l3.07-0.3l6.27-118.65L116.46,224.25L116.46,224.25z
		 M114.11,254.09l2.9,2.9l1.61,5.98l4.79,17.79l-2.09,0.11l-5.6-20.8L114.11,254.09L114.11,254.09z M180.21,254.09l2.9,2.9
		l0.45,7.59l3.74,62.36l-2.71,0.27l-3.93-65.53L180.21,254.09L180.21,254.09z M229.86,333.28l2.48-0.24l0.06,0.42l1.11,8.25
		l-8.29,0.82l-44.47,4.39l-8.31,0.82l-2.9-2.9l8.31-0.82l44.47-4.39l8.29-0.82L229.86,333.28L229.86,333.28z M165.86,283.37
		l-2.71,9.04l-1.62,5.42l-5.65,0.31l-37.28,2.05l-6.52,0.36l-2.9-2.9l6.52-0.36l37.28-2.05l5.65-0.31l1.62-5.42l4.98-16.62
		L165.86,283.37z"/>
	<path class="st5" d="M293.36,200.06l1.29-8.52l0.89-5.88l5.88-0.89l84.77-12.79l7.83-1.18l1.3,7.85l3.3,19.98l101.51,17.75
		l16.04,2.81l-33.34,27.84h-45.21l-0.17,8.6h4.27h36.62l21.73,15.44l9.25,34.29l2.29,8.49l-8.68,1.52l-99.12,17.34l-8.7,1.52
		l-0.71-8.82l-0.74-9.1l-25.3,0.51l-7.19,0.14l-0.93-7.13l-5.1-39.07l-5.47,35.27l-1.18,7.62l-7.63-0.85l-32.53-3.62l-0.61,6.66
		l-0.6,6.62l-6.61,0.65l-84.24,8.32l13.17-1.3l0.06,0.42l1.11,8.25l-8.29,0.82l-44.47,4.39l-8.31,0.82l-0.5-8.34l-3.81-63.61
		l-4.98,16.62l-1.63,5.42l-5.65,0.31l-37.28,2.05l-6.52,0.36l-1.7-6.31l-4.02-14.91l0.6,67.54l0.07,7.34l-7.3,0.72l-39.65,3.92
		l-9.31,0.92l0.49-9.32l7.38-139.59l0.44-8.41l8.37,0.83l56.34,5.57l4.31,0.43l2.02,3.82l8.13,15.39l10.4-13.4l2.73-3.52l4.41,0.44
		l54.73,5.41l6.33,0.63l0.85,6.3l4.84,35.92h10.54v-3.76v-23.56v-8.06h8.06h12.4l-2.4-16.33l-1.5-10.17l10.25,1.01l36.81,3.64
		L293.36,200.06L293.36,200.06z M384.76,206.42l1.11,13.67l-5.12-31l-71.06,10.72l-2.99,19.76l-6.31-14.65l11.95,27.77l2.03,4.72
		l-3.45,3.84l-5.4,6.01l4.8,4.32l2.98,2.68l-0.37,4.03l-3.17,34.87l25.21,2.8l12.9-83.2l15.89,0.19l11.45,87.68l17.13-0.34l0.71,8.8
		L384.76,206.42L384.76,206.42z M409.73,315.33l81.75-14.3l-6.18-22.93l-9.37-6.35h-13.93l0,0h-40.93l0.65-32.92l0.16-7.9h7.87
		h49.95l1.61-1.48l-79.65-13.93L409.73,315.33L409.73,315.33z M455.5,281.72l-34.7,3.32l-0.21,10.54l-0.2,9.84l9.67-1.78l38.08-7.02
		l-2.2-15.89L455.5,281.72L455.5,281.72z M207.7,325.46l-15.04-58.04l-2.61-10.07h10.38h2.98l-3.7-27.48l-43.99-4.35l-15.32,19.74
		l-7.65,9.86l-5.82-11.02l-11.93-22.59l-43.66-4.31L64.9,339.03l23.04-2.28l-0.66-74.54l-0.07-8.12h8.1h12.64h6.16l1.61,5.98
		l5.6,20.8l25.12-1.38l5.89-19.64l1.73-5.76h5.98h12.59h7.57l0.45,7.59l3.93,65.53l22.98-2.27L207.7,325.46L207.7,325.46z
		 M287.47,215.63l-21.83-2.16l2.26,15.38l1.36,9.22h-9.32h-13.66v7.45h13.66H268v8.06v38.74v8.06h-8.06h-12.11h-8.06v-8.06v-18.86
		h-28.96l10.71,41.32l70.79-6.99l4.26-46.91l-7.81-7.02l-5.98-5.38l5.38-5.99l7.34-8.16L287.47,215.63z"/>
	<path class="st4" d="M298.53,200.57l1.73,0.17l14.99,34.85l2.03,4.72l-3.45,3.84l-5.26,5.85l-3.05-2.74l5.4-6.01l3.45-3.84
		l-2.03-4.72L298.53,200.57L298.53,200.57z M313.31,254.26l2.9,2.9l-0.37,4.03l-5.23,57.56l-0.6,6.62l-6.61,0.65l-84.24,8.32
		l-6.84,0.68l-0.81-3.11l4.74-0.47l84.24-8.32l6.61-0.65l0.6-6.62l5.23-57.56L313.31,254.26L313.31,254.26z M288.64,218.36
		l-20.1-1.99l2.26,15.38l1.36,9.22h-9.32h-13.66v4.55h-2.9v-7.45h13.66h9.32l-1.36-9.22l-2.26-15.38l21.83,2.16L288.64,218.36
		L288.64,218.36z M268,245.52v8.06v38.74v8.06h-8.06h-12.11h-8.06l2.9,2.9h8.06h12.11h8.06v-8.06v-38.74v-8.06L268,245.52
		L268,245.52z M239.78,276.36v-2.9h-28.96l10.71,41.32l2.1-0.21l-9.9-38.21H239.78z"/>
	<path class="st4" d="M406.7,335.62l-8.7,1.52l-2.9-2.9l8.7-1.52l107.8-18.85l-11.54-42.78l2.9,2.9l11.54,42.78L406.7,335.62
		L406.7,335.62z M516.17,219.2l2.9,2.9l-33.34,27.84h-45.21l-0.11,5.7h-2.96l0.17-8.6h45.21L516.17,219.2L516.17,219.2z
		 M485.6,279.24l-0.31-1.14l-9.37-6.35h-54.85l3.01,2.9h2.81h34.41h17.53L485.6,279.24L485.6,279.24z M465.94,280.72l2.2,15.89
		l-38.08,7.02l-9.67,1.78l2.9,2.9l9.67-1.78l38.08-7.02l-2.2-15.89L465.94,280.72L465.94,280.72z M476.09,230.93h3.61l1.61-1.48
		l-79.65-13.93l8.07,99.82l2.63-0.46l-7.8-96.46L476.09,230.93z"/>
</g>
</svg>
